<svg xmlns="http://www.w3.org/2000/svg" xmlns:xlink="http://www.w3.org/1999/xlink" width="500" zoomAndPan="magnify" viewBox="0 0 375 374.999991" height="500" preserveAspectRatio="xMidYMid meet" version="1.0"><defs><g/><clipPath id="62c835ce65"><path d="M 78.175781 0.859375 L 275.199219 0.859375 L 275.199219 197.882812 L 78.175781 197.882812 Z M 78.175781 0.859375 " clip-rule="nonzero"/></clipPath><clipPath id="9345b3f8b5"><path d="M 176.6875 0.859375 C 122.28125 0.859375 78.175781 44.964844 78.175781 99.371094 C 78.175781 153.777344 122.28125 197.882812 176.6875 197.882812 C 231.09375 197.882812 275.199219 153.777344 275.199219 99.371094 C 275.199219 44.964844 231.09375 0.859375 176.6875 0.859375 Z M 176.6875 0.859375 " clip-rule="nonzero"/></clipPath><clipPath id="0302668569"><path d="M 85 80 L 322 80 L 322 277.609375 L 85 277.609375 Z M 85 80 " clip-rule="nonzero"/></clipPath></defs><g clip-path="url(#62c835ce65)"><g clip-path="url(#9345b3f8b5)"><path fill="#1d2b53" d="M 78.175781 0.859375 L 275.199219 0.859375 L 275.199219 197.882812 L 78.175781 197.882812 Z M 78.175781 0.859375 " fill-opacity="1" fill-rule="nonzero"/></g></g><g clip-path="url(#0302668569)"><path fill="#ff004d" d="M 168.753906 277.191406 C 147.398438 277.191406 126.042969 277.304688 104.679688 277.128906 C 96.4375 277.066406 89.414062 271.730469 87.074219 264.578125 C 84.449219 256.566406 86.542969 247.722656 93.515625 243.390625 C 97.457031 240.945312 102.753906 239.6875 107.457031 239.644531 C 145.953125 239.34375 184.433594 239.605469 222.929688 239.40625 C 252.917969 239.25 276.613281 219.457031 282.546875 190.164062 C 289.839844 154.15625 262.203125 119.523438 225.28125 118.953125 C 198.710938 118.535156 172.132812 118.867188 145.566406 118.835938 C 137.386719 118.828125 131.246094 115.226562 127.5 107.921875 C 124.148438 101.363281 124.160156 94.183594 129.199219 89.191406 C 133.246094 85.164062 139.5 81.113281 144.847656 81.019531 C 174.371094 80.519531 204 79.824219 233.417969 81.875 C 275.398438 84.796875 310.3125 116.808594 319.40625 157.777344 C 332.933594 218.71875 287.105469 276.515625 224.613281 277.171875 C 206.007812 277.359375 187.378906 277.191406 168.753906 277.191406 Z M 168.753906 277.191406 " fill-opacity="1" fill-rule="nonzero"/></g><path fill="#ff004d" d="M 181.074219 196.667969 C 163.714844 196.667969 146.148438 198.394531 129.050781 196.324219 C 87.238281 191.265625 51.171875 152.847656 46.769531 110.898438 C 42.074219 66.140625 68.320312 23.390625 109.269531 7.914062 C 127.730469 0.941406 146.710938 0.890625 165.796875 1.628906 C 175.964844 2.027344 183.320312 10.796875 183.25 20.527344 C 183.175781 30.246094 175.785156 38.550781 165.671875 39.425781 C 158.761719 40.019531 151.78125 39.644531 144.816406 39.695312 C 111.289062 39.945312 84.699219 65.097656 84.292969 98.515625 C 83.878906 132.855469 109.871094 158.226562 141.132812 159.535156 C 166.421875 160.597656 191.792969 159.890625 217.121094 159.996094 C 220.097656 160.003906 223.105469 159.984375 226.039062 160.378906 C 236.050781 161.734375 243.34375 170.347656 242.753906 179.902344 C 242.148438 189.613281 234.199219 197.71875 224.300781 197.914062 C 209.898438 198.195312 195.488281 197.988281 181.082031 197.988281 C 181.082031 197.550781 181.082031 197.105469 181.074219 196.667969 Z M 181.074219 196.667969 " fill-opacity="1" fill-rule="nonzero"/><g fill="#ffffff" fill-opacity="1"><g transform="translate(1.981025, 359.759197)"><g><path d="M 2.875 -5.796875 C 1.894531 -7.003906 1.40625 -8.085938 1.40625 -9.046875 C 1.40625 -10.003906 2.210938 -11.269531 3.828125 -12.84375 C 4.765625 -13.75 5.757812 -14.203125 6.8125 -14.203125 C 7.863281 -14.203125 9.332031 -13.257812 11.21875 -11.375 C 11.738281 -10.738281 12.488281 -10.128906 13.46875 -9.546875 C 14.445312 -8.960938 15.347656 -8.671875 16.171875 -8.671875 C 19.660156 -8.671875 21.40625 -10.097656 21.40625 -12.953125 C 21.40625 -13.816406 20.925781 -14.539062 19.96875 -15.125 C 19.007812 -15.707031 17.816406 -16.128906 16.390625 -16.390625 C 14.960938 -16.660156 13.421875 -17.082031 11.765625 -17.65625 C 10.117188 -18.238281 8.582031 -18.925781 7.15625 -19.71875 C 5.726562 -20.507812 4.535156 -21.757812 3.578125 -23.46875 C 2.617188 -25.175781 2.140625 -27.234375 2.140625 -29.640625 C 2.140625 -32.941406 3.367188 -35.820312 5.828125 -38.28125 C 8.285156 -40.738281 11.640625 -41.96875 15.890625 -41.96875 C 18.140625 -41.96875 20.191406 -41.675781 22.046875 -41.09375 C 23.910156 -40.519531 25.203125 -39.929688 25.921875 -39.328125 L 27.328125 -38.25 C 28.492188 -37.164062 29.078125 -36.25 29.078125 -35.5 C 29.078125 -34.75 28.625 -33.710938 27.71875 -32.390625 C 26.445312 -30.515625 25.132812 -29.578125 23.78125 -29.578125 C 22.988281 -29.578125 22.007812 -29.953125 20.84375 -30.703125 C 20.726562 -30.773438 20.507812 -30.960938 20.1875 -31.265625 C 19.875 -31.566406 19.585938 -31.8125 19.328125 -32 C 18.535156 -32.488281 17.53125 -32.734375 16.3125 -32.734375 C 15.09375 -32.734375 14.078125 -32.441406 13.265625 -31.859375 C 12.460938 -31.273438 12.0625 -30.46875 12.0625 -29.4375 C 12.0625 -28.40625 12.539062 -27.566406 13.5 -26.921875 C 14.457031 -26.285156 15.648438 -25.851562 17.078125 -25.625 C 18.503906 -25.40625 20.0625 -25.0625 21.75 -24.59375 C 23.4375 -24.125 24.992188 -23.550781 26.421875 -22.875 C 27.847656 -22.195312 29.039062 -21.019531 30 -19.34375 C 30.957031 -17.675781 31.4375 -15.617188 31.4375 -13.171875 C 31.4375 -10.734375 30.945312 -8.582031 29.96875 -6.71875 C 29 -4.863281 27.722656 -3.429688 26.140625 -2.421875 C 23.097656 -0.429688 19.847656 0.5625 16.390625 0.5625 C 14.628906 0.5625 12.957031 0.347656 11.375 -0.078125 C 9.800781 -0.515625 8.523438 -1.050781 7.546875 -1.6875 C 5.554688 -2.894531 4.164062 -4.0625 3.375 -5.1875 Z M 2.875 -5.796875 "/></g></g></g><g fill="#ffffff" fill-opacity="1"><g transform="translate(34.827301, 359.759197)"><g><path d="M 2.25 8.0625 L 2.25 -24.84375 C 2.25 -25.707031 2.273438 -26.347656 2.328125 -26.765625 C 2.390625 -27.179688 2.550781 -27.648438 2.8125 -28.171875 C 3.34375 -29.179688 4.601562 -29.6875 6.59375 -29.6875 C 8.582031 -29.6875 9.921875 -29.429688 10.609375 -28.921875 C 11.304688 -28.421875 11.710938 -27.679688 11.828125 -26.703125 C 13.253906 -28.660156 15.5 -29.640625 18.5625 -29.640625 C 21.625 -29.640625 24.523438 -28.191406 27.265625 -25.296875 C 30.015625 -22.398438 31.390625 -19.035156 31.390625 -15.203125 C 31.390625 -11.378906 30.023438 -8.019531 27.296875 -5.125 C 24.578125 -2.226562 21.675781 -0.78125 18.59375 -0.78125 C 15.507812 -0.78125 13.273438 -1.644531 11.890625 -3.375 L 11.890625 8 C 11.890625 8.863281 11.859375 9.5 11.796875 9.90625 C 11.742188 10.320312 11.578125 10.800781 11.296875 11.34375 C 11.015625 11.894531 10.535156 12.28125 9.859375 12.5 C 9.179688 12.726562 8.257812 12.84375 7.09375 12.84375 C 5.9375 12.84375 5.007812 12.726562 4.3125 12.5 C 3.613281 12.28125 3.125 11.90625 2.84375 11.375 C 2.5625 10.851562 2.390625 10.382812 2.328125 9.96875 C 2.273438 9.5625 2.25 8.925781 2.25 8.0625 Z M 13.40625 -18.46875 C 12.539062 -17.457031 12.109375 -16.351562 12.109375 -15.15625 C 12.109375 -13.957031 12.550781 -12.859375 13.4375 -11.859375 C 14.320312 -10.867188 15.445312 -10.375 16.8125 -10.375 C 18.1875 -10.375 19.351562 -10.859375 20.3125 -11.828125 C 21.269531 -12.804688 21.75 -13.914062 21.75 -15.15625 C 21.75 -16.394531 21.296875 -17.507812 20.390625 -18.5 C 19.492188 -19.5 18.320312 -20 16.875 -20 C 15.425781 -20 14.269531 -19.488281 13.40625 -18.46875 Z M 13.40625 -18.46875 "/></g></g></g><g fill="#ffffff" fill-opacity="1"><g transform="translate(67.617241, 359.759197)"><g><path d="M 30.875 -18.390625 C 30.875 -16.085938 30.300781 -14.378906 29.15625 -13.265625 C 28.007812 -12.160156 26.742188 -11.609375 25.359375 -11.609375 L 12 -11.609375 C 12 -10.554688 12.617188 -9.671875 13.859375 -8.953125 C 15.097656 -8.242188 16.335938 -7.890625 17.578125 -7.890625 C 19.753906 -7.890625 21.460938 -8.113281 22.703125 -8.5625 L 23.328125 -8.796875 C 24.222656 -9.203125 24.972656 -9.40625 25.578125 -9.40625 C 26.785156 -9.40625 27.816406 -8.5625 28.671875 -6.875 C 29.160156 -5.863281 29.40625 -5 29.40625 -4.28125 C 29.40625 -0.9375 25.40625 0.734375 17.40625 0.734375 C 14.625 0.734375 12.15625 0.253906 10 -0.703125 C 7.84375 -1.660156 6.160156 -2.925781 4.953125 -4.5 C 2.585938 -7.550781 1.40625 -10.953125 1.40625 -14.703125 C 1.40625 -19.441406 2.9375 -23.226562 6 -26.0625 C 9.0625 -28.894531 12.882812 -30.3125 17.46875 -30.3125 C 22.6875 -30.3125 26.515625 -28.472656 28.953125 -24.796875 C 30.234375 -22.835938 30.875 -20.703125 30.875 -18.390625 Z M 18.984375 -16.734375 C 20.410156 -16.734375 21.125 -17.332031 21.125 -18.53125 C 21.125 -19.394531 20.796875 -20.085938 20.140625 -20.609375 C 19.484375 -21.140625 18.546875 -21.40625 17.328125 -21.40625 C 16.109375 -21.40625 14.894531 -20.90625 13.6875 -19.90625 C 12.488281 -18.914062 11.890625 -17.859375 11.890625 -16.734375 Z M 18.984375 -16.734375 "/></g></g></g><g fill="#ffffff" fill-opacity="1"><g transform="translate(99.900113, 359.759197)"><g><path d="M 2.25 -38.703125 C 2.25 -39.566406 2.273438 -40.210938 2.328125 -40.640625 C 2.390625 -41.078125 2.550781 -41.578125 2.8125 -42.140625 C 3.34375 -43.160156 4.8125 -43.671875 7.21875 -43.671875 C 9.507812 -43.671875 10.9375 -43.160156 11.5 -42.140625 C 11.789062 -41.578125 11.960938 -41.070312 12.015625 -40.625 C 12.078125 -40.175781 12.109375 -39.519531 12.109375 -38.65625 L 12.109375 -12.5625 C 12.109375 -11.207031 12.222656 -10.351562 12.453125 -10 C 12.679688 -9.644531 13.175781 -9.46875 13.9375 -9.46875 C 14.707031 -9.46875 15.222656 -9.4375 15.484375 -9.375 C 15.753906 -9.320312 16.078125 -9.164062 16.453125 -8.90625 C 17.203125 -8.414062 17.578125 -7.082031 17.578125 -4.90625 C 17.578125 -2.539062 17.203125 -1.09375 16.453125 -0.5625 C 15.472656 0.113281 13.144531 0.226562 9.46875 -0.21875 C 6.570312 -0.59375 4.691406 -1.550781 3.828125 -3.09375 C 2.773438 -4.9375 2.25 -7.867188 2.25 -11.890625 Z M 2.25 -38.703125 "/></g></g></g><g fill="#ffffff" fill-opacity="1"><g transform="translate(118.323321, 359.759197)"><g><path d="M 2.25 -38.703125 C 2.25 -39.566406 2.273438 -40.210938 2.328125 -40.640625 C 2.390625 -41.078125 2.550781 -41.578125 2.8125 -42.140625 C 3.34375 -43.160156 4.8125 -43.671875 7.21875 -43.671875 C 9.507812 -43.671875 10.9375 -43.160156 11.5 -42.140625 C 11.789062 -41.578125 11.960938 -41.070312 12.015625 -40.625 C 12.078125 -40.175781 12.109375 -39.519531 12.109375 -38.65625 L 12.109375 -12.5625 C 12.109375 -11.207031 12.222656 -10.351562 12.453125 -10 C 12.679688 -9.644531 13.175781 -9.46875 13.9375 -9.46875 C 14.707031 -9.46875 15.222656 -9.4375 15.484375 -9.375 C 15.753906 -9.320312 16.078125 -9.164062 16.453125 -8.90625 C 17.203125 -8.414062 17.578125 -7.082031 17.578125 -4.90625 C 17.578125 -2.539062 17.203125 -1.09375 16.453125 -0.5625 C 15.472656 0.113281 13.144531 0.226562 9.46875 -0.21875 C 6.570312 -0.59375 4.691406 -1.550781 3.828125 -3.09375 C 2.773438 -4.9375 2.25 -7.867188 2.25 -11.890625 Z M 2.25 -38.703125 "/></g></g></g><g fill="#ffffff" fill-opacity="1"><g transform="translate(136.746529, 359.759197)"><g/></g></g><g fill="#ffffff" fill-opacity="1"><g transform="translate(151.000565, 359.759197)"><g><path d="M 28.0625 -10.8125 L 29.078125 -11.546875 C 30.347656 -12.296875 31.25 -12.671875 31.78125 -12.671875 C 32.945312 -12.671875 34.203125 -11.617188 35.546875 -9.515625 C 36.378906 -8.203125 36.796875 -7.148438 36.796875 -6.359375 C 36.796875 -5.578125 36.539062 -4.921875 36.03125 -4.390625 C 35.519531 -3.867188 34.925781 -3.398438 34.25 -2.984375 C 33.582031 -2.566406 32.9375 -2.171875 32.3125 -1.796875 C 31.695312 -1.421875 30.429688 -0.929688 28.515625 -0.328125 C 26.597656 0.265625 24.742188 0.5625 22.953125 0.5625 C 21.171875 0.5625 19.367188 0.328125 17.546875 -0.140625 C 15.722656 -0.609375 13.84375 -1.394531 11.90625 -2.5 C 9.976562 -3.613281 8.242188 -4.96875 6.703125 -6.5625 C 5.160156 -8.15625 3.890625 -10.203125 2.890625 -12.703125 C 1.898438 -15.203125 1.40625 -17.914062 1.40625 -20.84375 C 1.40625 -23.769531 1.894531 -26.425781 2.875 -28.8125 C 3.851562 -31.195312 5.101562 -33.171875 6.625 -34.734375 C 8.144531 -36.296875 9.878906 -37.601562 11.828125 -38.65625 C 15.515625 -40.675781 19.21875 -41.6875 22.9375 -41.6875 C 24.695312 -41.6875 26.488281 -41.414062 28.3125 -40.875 C 30.132812 -40.332031 31.515625 -39.78125 32.453125 -39.21875 L 33.8125 -38.421875 C 34.488281 -38.015625 35.015625 -37.675781 35.390625 -37.40625 C 36.359375 -36.625 36.84375 -35.734375 36.84375 -34.734375 C 36.84375 -33.742188 36.453125 -32.703125 35.671875 -31.609375 C 34.203125 -29.578125 32.882812 -28.5625 31.71875 -28.5625 C 31.039062 -28.5625 30.082031 -28.976562 28.84375 -29.8125 C 27.269531 -31.082031 25.164062 -31.71875 22.53125 -31.71875 C 20.09375 -31.71875 17.691406 -30.875 15.328125 -29.1875 C 14.203125 -28.363281 13.257812 -27.195312 12.5 -25.6875 C 11.75 -24.1875 11.375 -22.488281 11.375 -20.59375 C 11.375 -18.695312 11.75 -16.992188 12.5 -15.484375 C 13.257812 -13.984375 14.21875 -12.800781 15.375 -11.9375 C 17.664062 -10.289062 20.050781 -9.46875 22.53125 -9.46875 C 23.695312 -9.46875 24.796875 -9.617188 25.828125 -9.921875 C 26.867188 -10.222656 27.613281 -10.519531 28.0625 -10.8125 Z M 28.0625 -10.8125 "/></g></g></g><g fill="#ffffff" fill-opacity="1"><g transform="translate(189.25549, 359.759197)"><g><path d="M 18.703125 -29.578125 C 22.460938 -29.578125 25.585938 -28.148438 28.078125 -25.296875 C 30.578125 -22.441406 31.828125 -18.945312 31.828125 -14.8125 L 31.828125 -4.90625 C 31.828125 -4.039062 31.800781 -3.390625 31.75 -2.953125 C 31.695312 -2.523438 31.519531 -2.03125 31.21875 -1.46875 C 30.726562 -0.488281 29.28125 0 26.875 0 C 24.582031 0 23.15625 -0.488281 22.59375 -1.46875 C 22.289062 -2.03125 22.109375 -2.535156 22.046875 -2.984375 C 21.992188 -3.429688 21.96875 -4.109375 21.96875 -5.015625 L 21.96875 -14.875 C 21.96875 -16.414062 21.535156 -17.617188 20.671875 -18.484375 C 19.804688 -19.347656 18.707031 -19.78125 17.375 -19.78125 C 16.039062 -19.78125 14.867188 -19.375 13.859375 -18.5625 C 12.847656 -17.757812 12.265625 -16.847656 12.109375 -15.828125 L 12.109375 -4.90625 C 12.109375 -4.039062 12.078125 -3.390625 12.015625 -2.953125 C 11.960938 -2.523438 11.789062 -2.03125 11.5 -1.46875 C 11.007812 -0.488281 9.5625 0 7.15625 0 C 4.789062 0 3.34375 -0.503906 2.8125 -1.515625 C 2.550781 -2.078125 2.390625 -2.566406 2.328125 -2.984375 C 2.273438 -3.398438 2.25 -4.054688 2.25 -4.953125 L 2.25 -38.65625 C 2.25 -39.519531 2.273438 -40.164062 2.328125 -40.59375 C 2.390625 -41.03125 2.550781 -41.507812 2.8125 -42.03125 C 3.34375 -43.039062 4.8125 -43.546875 7.21875 -43.546875 C 9.582031 -43.546875 11.007812 -43.039062 11.5 -42.03125 C 11.789062 -41.46875 11.960938 -40.96875 12.015625 -40.53125 C 12.078125 -40.101562 12.109375 -39.457031 12.109375 -38.59375 L 12.109375 -26.140625 C 13.992188 -28.429688 16.191406 -29.578125 18.703125 -29.578125 Z M 18.703125 -29.578125 "/></g></g></g><g fill="#ffffff" fill-opacity="1"><g transform="translate(223.341245, 359.759197)"><g><path d="M 30.875 -18.390625 C 30.875 -16.085938 30.300781 -14.378906 29.15625 -13.265625 C 28.007812 -12.160156 26.742188 -11.609375 25.359375 -11.609375 L 12 -11.609375 C 12 -10.554688 12.617188 -9.671875 13.859375 -8.953125 C 15.097656 -8.242188 16.335938 -7.890625 17.578125 -7.890625 C 19.753906 -7.890625 21.460938 -8.113281 22.703125 -8.5625 L 23.328125 -8.796875 C 24.222656 -9.203125 24.972656 -9.40625 25.578125 -9.40625 C 26.785156 -9.40625 27.816406 -8.5625 28.671875 -6.875 C 29.160156 -5.863281 29.40625 -5 29.40625 -4.28125 C 29.40625 -0.9375 25.40625 0.734375 17.40625 0.734375 C 14.625 0.734375 12.15625 0.253906 10 -0.703125 C 7.84375 -1.660156 6.160156 -2.925781 4.953125 -4.5 C 2.585938 -7.550781 1.40625 -10.953125 1.40625 -14.703125 C 1.40625 -19.441406 2.9375 -23.226562 6 -26.0625 C 9.0625 -28.894531 12.882812 -30.3125 17.46875 -30.3125 C 22.6875 -30.3125 26.515625 -28.472656 28.953125 -24.796875 C 30.234375 -22.835938 30.875 -20.703125 30.875 -18.390625 Z M 18.984375 -16.734375 C 20.410156 -16.734375 21.125 -17.332031 21.125 -18.53125 C 21.125 -19.394531 20.796875 -20.085938 20.140625 -20.609375 C 19.484375 -21.140625 18.546875 -21.40625 17.328125 -21.40625 C 16.109375 -21.40625 14.894531 -20.90625 13.6875 -19.90625 C 12.488281 -18.914062 11.890625 -17.859375 11.890625 -16.734375 Z M 18.984375 -16.734375 "/></g></g></g><g fill="#ffffff" fill-opacity="1"><g transform="translate(255.624117, 359.759197)"><g><path d="M 11.546875 -14.84375 C 11.546875 -13.25 12.070312 -12.007812 13.125 -11.125 C 14.175781 -10.238281 15.289062 -9.796875 16.46875 -9.796875 C 17.65625 -9.796875 18.765625 -10.144531 19.796875 -10.84375 C 20.835938 -11.539062 21.675781 -11.890625 22.3125 -11.890625 C 23.4375 -11.890625 24.804688 -10.894531 26.421875 -8.90625 C 27.285156 -7.8125 27.71875 -6.832031 27.71875 -5.96875 C 27.71875 -4.539062 26.6875 -3.207031 24.625 -1.96875 C 22.476562 -0.46875 19.847656 0.28125 16.734375 0.28125 C 13.242188 0.28125 9.882812 -0.976562 6.65625 -3.5 C 5.113281 -4.695312 3.851562 -6.300781 2.875 -8.3125 C 1.894531 -10.320312 1.40625 -12.535156 1.40625 -14.953125 C 1.40625 -17.378906 1.894531 -19.578125 2.875 -21.546875 C 3.851562 -23.523438 5.113281 -25.113281 6.65625 -26.3125 C 9.769531 -28.789062 13.09375 -30.03125 16.625 -30.03125 C 18.050781 -30.03125 19.4375 -29.832031 20.78125 -29.4375 C 22.132812 -29.039062 23.132812 -28.65625 23.78125 -28.28125 L 24.671875 -27.71875 C 25.347656 -27.269531 25.875 -26.914062 26.25 -26.65625 C 27.226562 -25.90625 27.71875 -25.050781 27.71875 -24.09375 C 27.71875 -23.132812 27.320312 -22.050781 26.53125 -20.84375 C 25.1875 -18.78125 23.894531 -17.75 22.65625 -17.75 C 21.9375 -17.75 20.921875 -18.160156 19.609375 -18.984375 C 18.929688 -19.628906 17.960938 -19.953125 16.703125 -19.953125 C 15.441406 -19.953125 14.265625 -19.5 13.171875 -18.59375 C 12.085938 -17.6875 11.546875 -16.4375 11.546875 -14.84375 Z M 11.546875 -14.84375 "/></g></g></g><g fill="#ffffff" fill-opacity="1"><g transform="translate(284.751955, 359.759197)"><g><path d="M 19.71875 -14.875 L 27.21875 -8.671875 C 28.15625 -7.890625 28.742188 -7.289062 28.984375 -6.875 C 29.234375 -6.457031 29.359375 -6.0625 29.359375 -5.6875 C 29.359375 -4.789062 28.773438 -3.570312 27.609375 -2.03125 C 26.328125 -0.445312 25.203125 0.34375 24.234375 0.34375 C 23.398438 0.34375 22.253906 -0.203125 20.796875 -1.296875 L 20.234375 -1.6875 C 19.367188 -2.40625 18.03125 -3.65625 16.21875 -5.4375 C 14.414062 -7.21875 13.046875 -8.484375 12.109375 -9.234375 L 12.109375 -4.90625 C 12.109375 -4.039062 12.078125 -3.390625 12.015625 -2.953125 C 11.960938 -2.523438 11.789062 -2.03125 11.5 -1.46875 C 11.007812 -0.488281 9.5625 0 7.15625 0 C 4.789062 0 3.34375 -0.503906 2.8125 -1.515625 C 2.550781 -2.078125 2.390625 -2.570312 2.328125 -3 C 2.273438 -3.4375 2.25 -4.085938 2.25 -4.953125 L 2.25 -38.703125 C 2.25 -39.566406 2.273438 -40.210938 2.328125 -40.640625 C 2.390625 -41.078125 2.550781 -41.578125 2.8125 -42.140625 C 3.34375 -43.160156 4.8125 -43.671875 7.21875 -43.671875 C 9.019531 -43.671875 10.296875 -43.347656 11.046875 -42.703125 C 11.679688 -42.179688 12.019531 -41.359375 12.0625 -40.234375 C 12.09375 -39.890625 12.109375 -39.363281 12.109375 -38.65625 L 12.109375 -20.796875 C 12.785156 -21.359375 13.804688 -22.3125 15.171875 -23.65625 C 16.546875 -25.007812 17.570312 -25.96875 18.25 -26.53125 L 18.9375 -26.984375 C 20.25 -28.003906 21.375 -28.515625 22.3125 -28.515625 C 23.25 -28.515625 24.328125 -27.753906 25.546875 -26.234375 C 26.773438 -24.710938 27.390625 -23.519531 27.390625 -22.65625 C 27.390625 -21.789062 26.691406 -20.773438 25.296875 -19.609375 Z M 19.71875 -14.875 "/></g></g></g><g fill="#ffffff" fill-opacity="1"><g transform="translate(314.950266, 359.759197)"><g><path d="M 30.875 -18.390625 C 30.875 -16.085938 30.300781 -14.378906 29.15625 -13.265625 C 28.007812 -12.160156 26.742188 -11.609375 25.359375 -11.609375 L 12 -11.609375 C 12 -10.554688 12.617188 -9.671875 13.859375 -8.953125 C 15.097656 -8.242188 16.335938 -7.890625 17.578125 -7.890625 C 19.753906 -7.890625 21.460938 -8.113281 22.703125 -8.5625 L 23.328125 -8.796875 C 24.222656 -9.203125 24.972656 -9.40625 25.578125 -9.40625 C 26.785156 -9.40625 27.816406 -8.5625 28.671875 -6.875 C 29.160156 -5.863281 29.40625 -5 29.40625 -4.28125 C 29.40625 -0.9375 25.40625 0.734375 17.40625 0.734375 C 14.625 0.734375 12.15625 0.253906 10 -0.703125 C 7.84375 -1.660156 6.160156 -2.925781 4.953125 -4.5 C 2.585938 -7.550781 1.40625 -10.953125 1.40625 -14.703125 C 1.40625 -19.441406 2.9375 -23.226562 6 -26.0625 C 9.0625 -28.894531 12.882812 -30.3125 17.46875 -30.3125 C 22.6875 -30.3125 26.515625 -28.472656 28.953125 -24.796875 C 30.234375 -22.835938 30.875 -20.703125 30.875 -18.390625 Z M 18.984375 -16.734375 C 20.410156 -16.734375 21.125 -17.332031 21.125 -18.53125 C 21.125 -19.394531 20.796875 -20.085938 20.140625 -20.609375 C 19.484375 -21.140625 18.546875 -21.40625 17.328125 -21.40625 C 16.109375 -21.40625 14.894531 -20.90625 13.6875 -19.90625 C 12.488281 -18.914062 11.890625 -17.859375 11.890625 -16.734375 Z M 18.984375 -16.734375 "/></g></g></g><g fill="#ffffff" fill-opacity="1"><g transform="translate(347.233138, 359.759197)"><g><path d="M 22.421875 -29.34375 C 23.140625 -29.125 23.734375 -28.742188 24.203125 -28.203125 C 24.671875 -27.660156 24.90625 -26.785156 24.90625 -25.578125 C 24.90625 -24.378906 24.546875 -23.066406 23.828125 -21.640625 C 23.117188 -20.210938 22.085938 -19.5 20.734375 -19.5 C 20.054688 -19.5 19.40625 -19.644531 18.78125 -19.9375 C 18.164062 -20.238281 17.347656 -20.390625 16.328125 -20.390625 C 15.316406 -20.390625 14.367188 -20.03125 13.484375 -19.3125 C 12.609375 -18.601562 12.171875 -17.742188 12.171875 -16.734375 L 12.171875 -4.90625 C 12.171875 -4.039062 12.140625 -3.390625 12.078125 -2.953125 C 12.023438 -2.523438 11.847656 -2.03125 11.546875 -1.46875 C 10.984375 -0.488281 9.519531 0 7.15625 0 C 5.351562 0 4.054688 -0.316406 3.265625 -0.953125 C 2.660156 -1.484375 2.320312 -2.289062 2.25 -3.375 C 2.25 -3.75 2.25 -4.296875 2.25 -5.015625 L 2.25 -24.796875 C 2.25 -25.660156 2.273438 -26.304688 2.328125 -26.734375 C 2.390625 -27.171875 2.550781 -27.648438 2.8125 -28.171875 C 3.34375 -29.179688 4.8125 -29.6875 7.21875 -29.6875 C 9.46875 -29.6875 10.875 -29.253906 11.4375 -28.390625 C 11.851562 -27.796875 12.0625 -27.175781 12.0625 -26.53125 C 12.25 -26.800781 12.519531 -27.125 12.875 -27.5 C 13.226562 -27.875 13.988281 -28.378906 15.15625 -29.015625 C 16.320312 -29.648438 17.34375 -29.96875 18.21875 -29.96875 C 19.101562 -29.96875 19.847656 -29.921875 20.453125 -29.828125 C 21.054688 -29.734375 21.710938 -29.570312 22.421875 -29.34375 Z M 22.421875 -29.34375 "/></g></g></g></svg>