<svg xmlns="http://www.w3.org/2000/svg" xmlns:xlink="http://www.w3.org/1999/xlink" width="500" zoomAndPan="magnify" viewBox="0 0 375 374.999991" height="500" preserveAspectRatio="xMidYMid meet" version="1.0"><defs><g/><clipPath id="b4e917e587"><path d="M 138.996094 104.296875 L 226.410156 104.296875 L 226.410156 191.710938 L 138.996094 191.710938 Z M 138.996094 104.296875 " clip-rule="nonzero"/></clipPath><clipPath id="36aebc8dd9"><path d="M 182.703125 104.296875 C 158.566406 104.296875 138.996094 123.867188 138.996094 148.003906 C 138.996094 172.140625 158.566406 191.710938 182.703125 191.710938 C 206.839844 191.710938 226.410156 172.140625 226.410156 148.003906 C 226.410156 123.867188 206.839844 104.296875 182.703125 104.296875 Z M 182.703125 104.296875 " clip-rule="nonzero"/></clipPath><clipPath id="e03582db5a"><path d="M 124 104.296875 L 213 104.296875 L 213 192 L 124 192 Z M 124 104.296875 " clip-rule="nonzero"/></clipPath></defs><g clip-path="url(#b4e917e587)"><g clip-path="url(#36aebc8dd9)"><path fill="#1d2b53" d="M 138.996094 104.296875 L 226.410156 104.296875 L 226.410156 191.710938 L 138.996094 191.710938 Z M 138.996094 104.296875 " fill-opacity="1" fill-rule="nonzero"/></g></g><path fill="#ff004d" d="M 179.183594 226.898438 C 169.710938 226.898438 160.234375 226.949219 150.757812 226.867188 C 147.101562 226.839844 143.984375 224.472656 142.945312 221.300781 C 141.78125 217.746094 142.707031 213.820312 145.800781 211.902344 C 147.550781 210.816406 149.902344 210.257812 151.988281 210.238281 C 169.066406 210.105469 186.140625 210.21875 203.21875 210.132812 C 216.527344 210.0625 227.039062 201.28125 229.671875 188.285156 C 232.90625 172.308594 220.644531 156.945312 204.261719 156.691406 C 192.476562 156.503906 180.683594 156.652344 168.898438 156.640625 C 165.269531 156.632812 162.542969 155.035156 160.882812 151.796875 C 159.394531 148.886719 159.398438 145.703125 161.632812 143.484375 C 163.429688 141.699219 166.207031 139.902344 168.578125 139.859375 C 181.675781 139.640625 194.820312 139.328125 207.875 140.238281 C 226.5 141.535156 241.988281 155.738281 246.023438 173.917969 C 252.027344 200.953125 231.695312 226.597656 203.96875 226.886719 C 195.710938 226.972656 187.449219 226.898438 179.183594 226.898438 Z M 179.183594 226.898438 " fill-opacity="1" fill-rule="nonzero"/><g clip-path="url(#e03582db5a)"><path fill="#ff004d" d="M 184.648438 191.171875 C 176.949219 191.171875 169.15625 191.9375 161.570312 191.019531 C 143.019531 188.773438 127.015625 171.726562 125.0625 153.117188 C 122.980469 133.257812 134.625 114.292969 152.792969 107.425781 C 160.984375 104.332031 169.40625 104.308594 177.871094 104.636719 C 182.382812 104.8125 185.648438 108.703125 185.617188 113.023438 C 185.582031 117.332031 182.304688 121.019531 177.816406 121.40625 C 174.75 121.667969 171.652344 121.503906 168.566406 121.527344 C 153.6875 121.636719 141.890625 132.796875 141.710938 147.621094 C 141.527344 162.859375 153.058594 174.113281 166.929688 174.695312 C 178.148438 175.167969 189.40625 174.851562 200.644531 174.898438 C 201.964844 174.902344 203.296875 174.894531 204.601562 175.070312 C 209.042969 175.671875 212.277344 179.492188 212.015625 183.730469 C 211.746094 188.039062 208.21875 191.636719 203.828125 191.722656 C 197.441406 191.847656 191.046875 191.757812 184.65625 191.757812 C 184.65625 191.5625 184.65625 191.363281 184.648438 191.171875 Z M 184.648438 191.171875 " fill-opacity="1" fill-rule="nonzero"/></g><g fill="#000000" fill-opacity="1"><g transform="translate(105.199216, 263.529314)"><g><path d="M 1.28125 -2.578125 C 0.84375 -3.109375 0.625 -3.585938 0.625 -4.015625 C 0.625 -4.441406 0.984375 -5.003906 1.703125 -5.703125 C 2.117188 -6.097656 2.554688 -6.296875 3.015625 -6.296875 C 3.484375 -6.296875 4.132812 -5.878906 4.96875 -5.046875 C 5.207031 -4.765625 5.539062 -4.492188 5.96875 -4.234375 C 6.40625 -3.972656 6.804688 -3.84375 7.171875 -3.84375 C 8.722656 -3.84375 9.5 -4.476562 9.5 -5.75 C 9.5 -6.132812 9.285156 -6.453125 8.859375 -6.703125 C 8.429688 -6.960938 7.898438 -7.148438 7.265625 -7.265625 C 6.640625 -7.390625 5.957031 -7.578125 5.21875 -7.828125 C 4.488281 -8.085938 3.804688 -8.394531 3.171875 -8.75 C 2.535156 -9.101562 2.003906 -9.65625 1.578125 -10.40625 C 1.160156 -11.164062 0.953125 -12.082031 0.953125 -13.15625 C 0.953125 -14.613281 1.492188 -15.890625 2.578125 -16.984375 C 3.671875 -18.078125 5.160156 -18.625 7.046875 -18.625 C 8.046875 -18.625 8.957031 -18.492188 9.78125 -18.234375 C 10.613281 -17.972656 11.1875 -17.710938 11.5 -17.453125 L 12.125 -16.96875 C 12.644531 -16.488281 12.90625 -16.082031 12.90625 -15.75 C 12.90625 -15.414062 12.703125 -14.957031 12.296875 -14.375 C 11.734375 -13.539062 11.148438 -13.125 10.546875 -13.125 C 10.203125 -13.125 9.769531 -13.289062 9.25 -13.625 C 9.195312 -13.65625 9.097656 -13.738281 8.953125 -13.875 C 8.816406 -14.007812 8.691406 -14.117188 8.578125 -14.203125 C 8.222656 -14.421875 7.773438 -14.53125 7.234375 -14.53125 C 6.691406 -14.53125 6.238281 -14.398438 5.875 -14.140625 C 5.519531 -13.878906 5.34375 -13.519531 5.34375 -13.0625 C 5.34375 -12.601562 5.554688 -12.234375 5.984375 -11.953125 C 6.410156 -11.671875 6.941406 -11.476562 7.578125 -11.375 C 8.210938 -11.269531 8.90625 -11.113281 9.65625 -10.90625 C 10.40625 -10.695312 11.09375 -10.441406 11.71875 -10.140625 C 12.351562 -9.847656 12.882812 -9.328125 13.3125 -8.578125 C 13.738281 -7.835938 13.953125 -6.925781 13.953125 -5.84375 C 13.953125 -4.757812 13.734375 -3.804688 13.296875 -2.984375 C 12.867188 -2.160156 12.300781 -1.523438 11.59375 -1.078125 C 10.25 -0.191406 8.8125 0.25 7.28125 0.25 C 6.488281 0.25 5.742188 0.15625 5.046875 -0.03125 C 4.347656 -0.226562 3.78125 -0.46875 3.34375 -0.75 C 2.46875 -1.28125 1.851562 -1.796875 1.5 -2.296875 Z M 1.28125 -2.578125 "/></g></g></g><g fill="#000000" fill-opacity="1"><g transform="translate(119.771904, 263.529314)"><g><path d="M 1 3.578125 L 1 -11.03125 C 1 -11.40625 1.007812 -11.6875 1.03125 -11.875 C 1.0625 -12.0625 1.132812 -12.269531 1.25 -12.5 C 1.476562 -12.945312 2.035156 -13.171875 2.921875 -13.171875 C 3.804688 -13.171875 4.398438 -13.054688 4.703125 -12.828125 C 5.015625 -12.609375 5.195312 -12.28125 5.25 -11.84375 C 5.882812 -12.71875 6.878906 -13.15625 8.234375 -13.15625 C 9.597656 -13.15625 10.882812 -12.507812 12.09375 -11.21875 C 13.3125 -9.9375 13.921875 -8.445312 13.921875 -6.75 C 13.921875 -5.050781 13.316406 -3.554688 12.109375 -2.265625 C 10.898438 -0.984375 9.613281 -0.34375 8.25 -0.34375 C 6.882812 -0.34375 5.894531 -0.726562 5.28125 -1.5 L 5.28125 3.546875 C 5.28125 3.929688 5.265625 4.210938 5.234375 4.390625 C 5.210938 4.578125 5.140625 4.789062 5.015625 5.03125 C 4.890625 5.28125 4.675781 5.453125 4.375 5.546875 C 4.070312 5.648438 3.660156 5.703125 3.140625 5.703125 C 2.628906 5.703125 2.21875 5.648438 1.90625 5.546875 C 1.601562 5.453125 1.390625 5.285156 1.265625 5.046875 C 1.140625 4.816406 1.0625 4.609375 1.03125 4.421875 C 1.007812 4.242188 1 3.960938 1 3.578125 Z M 5.953125 -8.203125 C 5.566406 -7.753906 5.375 -7.257812 5.375 -6.71875 C 5.375 -6.1875 5.566406 -5.695312 5.953125 -5.25 C 6.347656 -4.8125 6.847656 -4.59375 7.453125 -4.59375 C 8.066406 -4.59375 8.585938 -4.8125 9.015625 -5.25 C 9.441406 -5.6875 9.65625 -6.175781 9.65625 -6.71875 C 9.65625 -7.269531 9.453125 -7.765625 9.046875 -8.203125 C 8.648438 -8.648438 8.128906 -8.875 7.484375 -8.875 C 6.847656 -8.875 6.335938 -8.648438 5.953125 -8.203125 Z M 5.953125 -8.203125 "/></g></g></g><g fill="#000000" fill-opacity="1"><g transform="translate(134.319599, 263.529314)"><g><path d="M 13.703125 -8.15625 C 13.703125 -7.132812 13.445312 -6.378906 12.9375 -5.890625 C 12.425781 -5.398438 11.863281 -5.15625 11.25 -5.15625 L 5.328125 -5.15625 C 5.328125 -4.6875 5.597656 -4.289062 6.140625 -3.96875 C 6.691406 -3.65625 7.242188 -3.5 7.796875 -3.5 C 8.765625 -3.5 9.523438 -3.597656 10.078125 -3.796875 L 10.34375 -3.90625 C 10.75 -4.082031 11.082031 -4.171875 11.34375 -4.171875 C 11.882812 -4.171875 12.34375 -3.796875 12.71875 -3.046875 C 12.9375 -2.597656 13.046875 -2.21875 13.046875 -1.90625 C 13.046875 -0.414062 11.269531 0.328125 7.71875 0.328125 C 6.488281 0.328125 5.394531 0.113281 4.4375 -0.3125 C 3.476562 -0.738281 2.734375 -1.300781 2.203125 -2 C 1.148438 -3.351562 0.625 -4.863281 0.625 -6.53125 C 0.625 -8.625 1.300781 -10.300781 2.65625 -11.5625 C 4.019531 -12.820312 5.71875 -13.453125 7.75 -13.453125 C 10.0625 -13.453125 11.757812 -12.632812 12.84375 -11 C 13.414062 -10.132812 13.703125 -9.1875 13.703125 -8.15625 Z M 8.421875 -7.421875 C 9.054688 -7.421875 9.375 -7.6875 9.375 -8.21875 C 9.375 -8.601562 9.226562 -8.910156 8.9375 -9.140625 C 8.644531 -9.378906 8.226562 -9.5 7.6875 -9.5 C 7.144531 -9.5 6.609375 -9.273438 6.078125 -8.828125 C 5.546875 -8.390625 5.28125 -7.921875 5.28125 -7.421875 Z M 8.421875 -7.421875 "/></g></g></g><g fill="#000000" fill-opacity="1"><g transform="translate(148.642325, 263.529314)"><g><path d="M 1 -17.171875 C 1 -17.554688 1.007812 -17.84375 1.03125 -18.03125 C 1.0625 -18.226562 1.132812 -18.453125 1.25 -18.703125 C 1.476562 -19.148438 2.128906 -19.375 3.203125 -19.375 C 4.210938 -19.375 4.84375 -19.148438 5.09375 -18.703125 C 5.226562 -18.453125 5.304688 -18.222656 5.328125 -18.015625 C 5.359375 -17.816406 5.375 -17.53125 5.375 -17.15625 L 5.375 -5.578125 C 5.375 -4.972656 5.421875 -4.59375 5.515625 -4.4375 C 5.617188 -4.28125 5.84375 -4.203125 6.1875 -4.203125 C 6.53125 -4.203125 6.757812 -4.1875 6.875 -4.15625 C 6.988281 -4.132812 7.128906 -4.066406 7.296875 -3.953125 C 7.628906 -3.734375 7.796875 -3.140625 7.796875 -2.171875 C 7.796875 -1.117188 7.628906 -0.476562 7.296875 -0.25 C 6.867188 0.0507812 5.835938 0.101562 4.203125 -0.09375 C 2.921875 -0.257812 2.085938 -0.6875 1.703125 -1.375 C 1.234375 -2.1875 1 -3.488281 1 -5.28125 Z M 1 -17.171875 "/></g></g></g><g fill="#000000" fill-opacity="1"><g transform="translate(156.816027, 263.529314)"><g><path d="M 1 -17.171875 C 1 -17.554688 1.007812 -17.84375 1.03125 -18.03125 C 1.0625 -18.226562 1.132812 -18.453125 1.25 -18.703125 C 1.476562 -19.148438 2.128906 -19.375 3.203125 -19.375 C 4.210938 -19.375 4.84375 -19.148438 5.09375 -18.703125 C 5.226562 -18.453125 5.304688 -18.222656 5.328125 -18.015625 C 5.359375 -17.816406 5.375 -17.53125 5.375 -17.15625 L 5.375 -5.578125 C 5.375 -4.972656 5.421875 -4.59375 5.515625 -4.4375 C 5.617188 -4.28125 5.84375 -4.203125 6.1875 -4.203125 C 6.53125 -4.203125 6.757812 -4.1875 6.875 -4.15625 C 6.988281 -4.132812 7.128906 -4.066406 7.296875 -3.953125 C 7.628906 -3.734375 7.796875 -3.140625 7.796875 -2.171875 C 7.796875 -1.117188 7.628906 -0.476562 7.296875 -0.25 C 6.867188 0.0507812 5.835938 0.101562 4.203125 -0.09375 C 2.921875 -0.257812 2.085938 -0.6875 1.703125 -1.375 C 1.234375 -2.1875 1 -3.488281 1 -5.28125 Z M 1 -17.171875 "/></g></g></g><g fill="#000000" fill-opacity="1"><g transform="translate(164.989729, 263.529314)"><g/></g></g><g fill="#000000" fill-opacity="1"><g transform="translate(171.313722, 263.529314)"><g><path d="M 12.453125 -4.796875 L 12.90625 -5.125 C 13.46875 -5.457031 13.863281 -5.625 14.09375 -5.625 C 14.613281 -5.625 15.175781 -5.15625 15.78125 -4.21875 C 16.144531 -3.632812 16.328125 -3.164062 16.328125 -2.8125 C 16.328125 -2.46875 16.210938 -2.175781 15.984375 -1.9375 C 15.765625 -1.707031 15.503906 -1.5 15.203125 -1.3125 C 14.898438 -1.132812 14.609375 -0.960938 14.328125 -0.796875 C 14.054688 -0.628906 13.492188 -0.410156 12.640625 -0.140625 C 11.796875 0.117188 10.976562 0.25 10.1875 0.25 C 9.394531 0.25 8.59375 0.144531 7.78125 -0.0625 C 6.976562 -0.269531 6.144531 -0.617188 5.28125 -1.109375 C 4.425781 -1.597656 3.65625 -2.195312 2.96875 -2.90625 C 2.289062 -3.613281 1.726562 -4.519531 1.28125 -5.625 C 0.84375 -6.738281 0.625 -7.945312 0.625 -9.25 C 0.625 -10.550781 0.835938 -11.726562 1.265625 -12.78125 C 1.703125 -13.84375 2.257812 -14.71875 2.9375 -15.40625 C 3.613281 -16.101562 4.382812 -16.6875 5.25 -17.15625 C 6.882812 -18.050781 8.523438 -18.5 10.171875 -18.5 C 10.953125 -18.5 11.75 -18.378906 12.5625 -18.140625 C 13.375 -17.898438 13.988281 -17.65625 14.40625 -17.40625 L 15 -17.046875 C 15.300781 -16.867188 15.535156 -16.71875 15.703125 -16.59375 C 16.128906 -16.25 16.34375 -15.851562 16.34375 -15.40625 C 16.34375 -14.96875 16.171875 -14.507812 15.828125 -14.03125 C 15.171875 -13.125 14.585938 -12.671875 14.078125 -12.671875 C 13.773438 -12.671875 13.347656 -12.851562 12.796875 -13.21875 C 12.097656 -13.789062 11.164062 -14.078125 10 -14.078125 C 8.914062 -14.078125 7.847656 -13.703125 6.796875 -12.953125 C 6.296875 -12.585938 5.878906 -12.070312 5.546875 -11.40625 C 5.210938 -10.738281 5.046875 -9.984375 5.046875 -9.140625 C 5.046875 -8.296875 5.210938 -7.539062 5.546875 -6.875 C 5.878906 -6.207031 6.304688 -5.679688 6.828125 -5.296875 C 7.835938 -4.566406 8.894531 -4.203125 10 -4.203125 C 10.519531 -4.203125 11.007812 -4.265625 11.46875 -4.390625 C 11.925781 -4.523438 12.253906 -4.660156 12.453125 -4.796875 Z M 12.453125 -4.796875 "/></g></g></g><g fill="#000000" fill-opacity="1"><g transform="translate(188.28603, 263.529314)"><g><path d="M 8.296875 -13.125 C 9.960938 -13.125 11.347656 -12.488281 12.453125 -11.21875 C 13.566406 -9.957031 14.125 -8.410156 14.125 -6.578125 L 14.125 -2.171875 C 14.125 -1.785156 14.109375 -1.5 14.078125 -1.3125 C 14.054688 -1.125 13.976562 -0.90625 13.84375 -0.65625 C 13.632812 -0.21875 12.992188 0 11.921875 0 C 10.910156 0 10.28125 -0.21875 10.03125 -0.65625 C 9.894531 -0.90625 9.8125 -1.128906 9.78125 -1.328125 C 9.757812 -1.523438 9.75 -1.820312 9.75 -2.21875 L 9.75 -6.59375 C 9.75 -7.28125 9.554688 -7.816406 9.171875 -8.203125 C 8.785156 -8.585938 8.296875 -8.78125 7.703125 -8.78125 C 7.117188 -8.78125 6.597656 -8.597656 6.140625 -8.234375 C 5.691406 -7.878906 5.4375 -7.476562 5.375 -7.03125 L 5.375 -2.171875 C 5.375 -1.785156 5.359375 -1.5 5.328125 -1.3125 C 5.304688 -1.125 5.226562 -0.90625 5.09375 -0.65625 C 4.882812 -0.21875 4.242188 0 3.171875 0 C 2.117188 0 1.476562 -0.222656 1.25 -0.671875 C 1.132812 -0.921875 1.0625 -1.132812 1.03125 -1.3125 C 1.007812 -1.5 1 -1.796875 1 -2.203125 L 1 -17.15625 C 1 -17.53125 1.007812 -17.8125 1.03125 -18 C 1.0625 -18.195312 1.132812 -18.414062 1.25 -18.65625 C 1.476562 -19.101562 2.128906 -19.328125 3.203125 -19.328125 C 4.253906 -19.328125 4.882812 -19.101562 5.09375 -18.65625 C 5.226562 -18.40625 5.304688 -18.179688 5.328125 -17.984375 C 5.359375 -17.796875 5.375 -17.507812 5.375 -17.125 L 5.375 -11.59375 C 6.207031 -12.613281 7.179688 -13.125 8.296875 -13.125 Z M 8.296875 -13.125 "/></g></g></g><g fill="#000000" fill-opacity="1"><g transform="translate(203.408629, 263.529314)"><g><path d="M 13.703125 -8.15625 C 13.703125 -7.132812 13.445312 -6.378906 12.9375 -5.890625 C 12.425781 -5.398438 11.863281 -5.15625 11.25 -5.15625 L 5.328125 -5.15625 C 5.328125 -4.6875 5.597656 -4.289062 6.140625 -3.96875 C 6.691406 -3.65625 7.242188 -3.5 7.796875 -3.5 C 8.765625 -3.5 9.523438 -3.597656 10.078125 -3.796875 L 10.34375 -3.90625 C 10.75 -4.082031 11.082031 -4.171875 11.34375 -4.171875 C 11.882812 -4.171875 12.34375 -3.796875 12.71875 -3.046875 C 12.9375 -2.597656 13.046875 -2.21875 13.046875 -1.90625 C 13.046875 -0.414062 11.269531 0.328125 7.71875 0.328125 C 6.488281 0.328125 5.394531 0.113281 4.4375 -0.3125 C 3.476562 -0.738281 2.734375 -1.300781 2.203125 -2 C 1.148438 -3.351562 0.625 -4.863281 0.625 -6.53125 C 0.625 -8.625 1.300781 -10.300781 2.65625 -11.5625 C 4.019531 -12.820312 5.71875 -13.453125 7.75 -13.453125 C 10.0625 -13.453125 11.757812 -12.632812 12.84375 -11 C 13.414062 -10.132812 13.703125 -9.1875 13.703125 -8.15625 Z M 8.421875 -7.421875 C 9.054688 -7.421875 9.375 -7.6875 9.375 -8.21875 C 9.375 -8.601562 9.226562 -8.910156 8.9375 -9.140625 C 8.644531 -9.378906 8.226562 -9.5 7.6875 -9.5 C 7.144531 -9.5 6.609375 -9.273438 6.078125 -8.828125 C 5.546875 -8.390625 5.28125 -7.921875 5.28125 -7.421875 Z M 8.421875 -7.421875 "/></g></g></g><g fill="#000000" fill-opacity="1"><g transform="translate(217.731355, 263.529314)"><g><path d="M 5.125 -6.59375 C 5.125 -5.882812 5.359375 -5.332031 5.828125 -4.9375 C 6.296875 -4.539062 6.789062 -4.34375 7.3125 -4.34375 C 7.832031 -4.34375 8.320312 -4.5 8.78125 -4.8125 C 9.238281 -5.125 9.613281 -5.28125 9.90625 -5.28125 C 10.40625 -5.28125 11.007812 -4.835938 11.71875 -3.953125 C 12.101562 -3.460938 12.296875 -3.03125 12.296875 -2.65625 C 12.296875 -2.019531 11.835938 -1.425781 10.921875 -0.875 C 9.972656 -0.207031 8.804688 0.125 7.421875 0.125 C 5.867188 0.125 4.378906 -0.429688 2.953125 -1.546875 C 2.265625 -2.078125 1.703125 -2.789062 1.265625 -3.6875 C 0.835938 -4.582031 0.625 -5.566406 0.625 -6.640625 C 0.625 -7.710938 0.835938 -8.6875 1.265625 -9.5625 C 1.703125 -10.4375 2.265625 -11.140625 2.953125 -11.671875 C 4.335938 -12.773438 5.8125 -13.328125 7.375 -13.328125 C 8.007812 -13.328125 8.625 -13.238281 9.21875 -13.0625 C 9.820312 -12.882812 10.265625 -12.710938 10.546875 -12.546875 L 10.953125 -12.296875 C 11.253906 -12.097656 11.488281 -11.941406 11.65625 -11.828125 C 12.082031 -11.492188 12.296875 -11.113281 12.296875 -10.6875 C 12.296875 -10.257812 12.125 -9.78125 11.78125 -9.25 C 11.175781 -8.332031 10.597656 -7.875 10.046875 -7.875 C 9.734375 -7.875 9.285156 -8.054688 8.703125 -8.421875 C 8.398438 -8.703125 7.96875 -8.84375 7.40625 -8.84375 C 6.851562 -8.84375 6.332031 -8.644531 5.84375 -8.25 C 5.363281 -7.851562 5.125 -7.300781 5.125 -6.59375 Z M 5.125 -6.59375 "/></g></g></g><g fill="#000000" fill-opacity="1"><g transform="translate(230.654309, 263.529314)"><g><path d="M 8.75 -6.59375 L 12.078125 -3.84375 C 12.492188 -3.5 12.753906 -3.234375 12.859375 -3.046875 C 12.972656 -2.867188 13.03125 -2.695312 13.03125 -2.53125 C 13.03125 -2.125 12.769531 -1.582031 12.25 -0.90625 C 11.6875 -0.195312 11.1875 0.15625 10.75 0.15625 C 10.382812 0.15625 9.875 -0.0859375 9.21875 -0.578125 L 8.96875 -0.75 C 8.59375 -1.0625 8.003906 -1.613281 7.203125 -2.40625 C 6.398438 -3.195312 5.789062 -3.757812 5.375 -4.09375 L 5.375 -2.171875 C 5.375 -1.785156 5.359375 -1.5 5.328125 -1.3125 C 5.304688 -1.125 5.226562 -0.90625 5.09375 -0.65625 C 4.882812 -0.21875 4.242188 0 3.171875 0 C 2.117188 0 1.476562 -0.222656 1.25 -0.671875 C 1.132812 -0.921875 1.0625 -1.140625 1.03125 -1.328125 C 1.007812 -1.523438 1 -1.816406 1 -2.203125 L 1 -17.171875 C 1 -17.554688 1.007812 -17.84375 1.03125 -18.03125 C 1.0625 -18.226562 1.132812 -18.453125 1.25 -18.703125 C 1.476562 -19.148438 2.128906 -19.375 3.203125 -19.375 C 4.003906 -19.375 4.570312 -19.234375 4.90625 -18.953125 C 5.1875 -18.710938 5.332031 -18.34375 5.34375 -17.84375 C 5.363281 -17.695312 5.375 -17.46875 5.375 -17.15625 L 5.375 -9.21875 C 5.675781 -9.46875 6.128906 -9.894531 6.734375 -10.5 C 7.347656 -11.101562 7.800781 -11.53125 8.09375 -11.78125 L 8.40625 -11.96875 C 8.988281 -12.425781 9.488281 -12.65625 9.90625 -12.65625 C 10.320312 -12.65625 10.800781 -12.316406 11.34375 -11.640625 C 11.882812 -10.960938 12.15625 -10.429688 12.15625 -10.046875 C 12.15625 -9.660156 11.84375 -9.210938 11.21875 -8.703125 Z M 8.75 -6.59375 "/></g></g></g><g fill="#000000" fill-opacity="1"><g transform="translate(244.052193, 263.529314)"><g><path d="M 13.703125 -8.15625 C 13.703125 -7.132812 13.445312 -6.378906 12.9375 -5.890625 C 12.425781 -5.398438 11.863281 -5.15625 11.25 -5.15625 L 5.328125 -5.15625 C 5.328125 -4.6875 5.597656 -4.289062 6.140625 -3.96875 C 6.691406 -3.65625 7.242188 -3.5 7.796875 -3.5 C 8.765625 -3.5 9.523438 -3.597656 10.078125 -3.796875 L 10.34375 -3.90625 C 10.75 -4.082031 11.082031 -4.171875 11.34375 -4.171875 C 11.882812 -4.171875 12.34375 -3.796875 12.71875 -3.046875 C 12.9375 -2.597656 13.046875 -2.21875 13.046875 -1.90625 C 13.046875 -0.414062 11.269531 0.328125 7.71875 0.328125 C 6.488281 0.328125 5.394531 0.113281 4.4375 -0.3125 C 3.476562 -0.738281 2.734375 -1.300781 2.203125 -2 C 1.148438 -3.351562 0.625 -4.863281 0.625 -6.53125 C 0.625 -8.625 1.300781 -10.300781 2.65625 -11.5625 C 4.019531 -12.820312 5.71875 -13.453125 7.75 -13.453125 C 10.0625 -13.453125 11.757812 -12.632812 12.84375 -11 C 13.414062 -10.132812 13.703125 -9.1875 13.703125 -8.15625 Z M 8.421875 -7.421875 C 9.054688 -7.421875 9.375 -7.6875 9.375 -8.21875 C 9.375 -8.601562 9.226562 -8.910156 8.9375 -9.140625 C 8.644531 -9.378906 8.226562 -9.5 7.6875 -9.5 C 7.144531 -9.5 6.609375 -9.273438 6.078125 -8.828125 C 5.546875 -8.390625 5.28125 -7.921875 5.28125 -7.421875 Z M 8.421875 -7.421875 "/></g></g></g><g fill="#000000" fill-opacity="1"><g transform="translate(258.374919, 263.529314)"><g><path d="M 9.9375 -13.015625 C 10.257812 -12.921875 10.523438 -12.753906 10.734375 -12.515625 C 10.941406 -12.273438 11.046875 -11.882812 11.046875 -11.34375 C 11.046875 -10.8125 10.882812 -10.226562 10.5625 -9.59375 C 10.25 -8.96875 9.796875 -8.65625 9.203125 -8.65625 C 8.898438 -8.65625 8.609375 -8.71875 8.328125 -8.84375 C 8.054688 -8.976562 7.695312 -9.046875 7.25 -9.046875 C 6.800781 -9.046875 6.378906 -8.882812 5.984375 -8.5625 C 5.597656 -8.25 5.40625 -7.867188 5.40625 -7.421875 L 5.40625 -2.171875 C 5.40625 -1.785156 5.390625 -1.5 5.359375 -1.3125 C 5.335938 -1.125 5.257812 -0.90625 5.125 -0.65625 C 4.875 -0.21875 4.222656 0 3.171875 0 C 2.367188 0 1.796875 -0.140625 1.453125 -0.421875 C 1.179688 -0.660156 1.03125 -1.019531 1 -1.5 C 1 -1.664062 1 -1.90625 1 -2.21875 L 1 -11 C 1 -11.382812 1.007812 -11.671875 1.03125 -11.859375 C 1.0625 -12.054688 1.132812 -12.269531 1.25 -12.5 C 1.476562 -12.945312 2.128906 -13.171875 3.203125 -13.171875 C 4.203125 -13.171875 4.828125 -12.976562 5.078125 -12.59375 C 5.253906 -12.332031 5.34375 -12.0625 5.34375 -11.78125 C 5.425781 -11.894531 5.546875 -12.035156 5.703125 -12.203125 C 5.867188 -12.367188 6.207031 -12.59375 6.71875 -12.875 C 7.238281 -13.15625 7.691406 -13.296875 8.078125 -13.296875 C 8.472656 -13.296875 8.800781 -13.273438 9.0625 -13.234375 C 9.332031 -13.191406 9.625 -13.117188 9.9375 -13.015625 Z M 9.9375 -13.015625 "/></g></g></g></svg>